<svg width="800" height="450" viewBox="0 0 800 450" fill="none" xmlns="http://www.w3.org/2000/svg">
  <rect width="800" height="450" fill="#E8EEFF"/>
  <rect x="56" y="39" width="688" height="372" rx="12" fill="#FAFBFF"/>
  <rect x="56" y="39" width="688" height="57" rx="12" fill="#435FB6"/>
  <text x="89" y="76" fill="white" font-family="Arial, sans-serif" font-size="24" font-weight="700">AR</text>
  <text x="137" y="74" fill="#DCE5FF" font-family="Arial, sans-serif" font-size="13" letter-spacing="3">ACADEMIC REMINDER</text>
  <text x="89" y="137" fill="#263B78" font-family="Arial, sans-serif" font-size="21" font-weight="700">September 2026</text>
  <g fill="#E5EAFE"><rect x="89" y="160" width="75" height="53" rx="5"/><rect x="176" y="160" width="75" height="53" rx="5"/><rect x="263" y="160" width="75" height="53" rx="5"/><rect x="350" y="160" width="75" height="53" rx="5"/><rect x="437" y="160" width="75" height="53" rx="5"/><rect x="524" y="160" width="75" height="53" rx="5"/><rect x="611" y="160" width="75" height="53" rx="5"/><rect x="89" y="225" width="75" height="53" rx="5"/><rect x="176" y="225" width="75" height="53" rx="5"/><rect x="263" y="225" width="75" height="53" rx="5"/><rect x="350" y="225" width="75" height="53" rx="5"/><rect x="437" y="225" width="75" height="53" rx="5"/><rect x="524" y="225" width="75" height="53" rx="5"/><rect x="611" y="225" width="75" height="53" rx="5"/></g>
  <rect x="263" y="225" width="75" height="53" rx="5" fill="#4B70D2"/><rect x="524" y="160" width="75" height="53" rx="5" fill="#F0B265"/>
  <g fill="#43518D" font-family="Arial, sans-serif" font-size="13"><text x="108" y="191">08</text><text x="195" y="191">09</text><text x="282" y="191">10</text><text x="369" y="191">11</text><text x="456" y="191">12</text><text x="543" y="191">13</text><text x="630" y="191">14</text><text x="108" y="256">15</text><text x="195" y="256">16</text><text x="282" y="256" fill="white">17</text><text x="369" y="256">18</text><text x="456" y="256">19</text><text x="543" y="191" fill="white">13</text><text x="630" y="256">21</text></g>
  <rect x="89" y="311" width="597" height="62" rx="6" fill="#F1F4FF"/><circle cx="119" cy="342" r="8" fill="#EF9C5D"/><text x="144" y="338" fill="#263B78" font-family="Arial, sans-serif" font-size="15" font-weight="700">Database Systems</text><text x="144" y="358" fill="#6F7CA8" font-family="Arial, sans-serif" font-size="12">Today · 10:00 AM</text>
</svg>
